<svg xmlns="http://www.w3.org/2000/svg" version="1.1" xmlns:xlink="http://www.w3.org/1999/xlink" xmlns:svgjs="http://svgjs.com/svgjs" width="512" height="512"><svg width="512" height="512" viewBox="0 0 512 512" fill="none" xmlns="http://www.w3.org/2000/svg">
<rect width="512" height="512" rx="85" fill="white"></rect>
<path d="M205.25 340.583H306.75M205.25 289.833H306.75M272.923 103.765C271.307 103.75 269.489 103.75 267.414 103.75H191.72C172.772 103.75 163.29 103.75 156.053 107.438C149.687 110.681 144.515 115.853 141.271 122.22C137.583 129.457 137.583 138.938 137.583 157.887V354.12C137.583 373.068 137.583 382.538 141.271 389.775C144.515 396.141 149.687 401.322 156.053 404.566C163.283 408.25 172.753 408.25 191.665 408.25L320.336 408.25C339.247 408.25 348.703 408.25 355.933 404.566C362.3 401.322 367.489 396.141 370.733 389.775C374.417 382.545 374.417 373.089 374.417 354.177V210.759C374.417 208.684 374.415 206.866 374.4 205.25M272.923 103.765C277.752 103.809 280.795 103.988 283.713 104.688C287.165 105.517 290.474 106.884 293.501 108.739C296.914 110.831 299.845 113.762 305.693 119.609L358.566 172.482C364.417 178.334 367.326 181.251 369.419 184.666C371.274 187.693 372.646 190.994 373.475 194.446C374.175 197.363 374.356 200.421 374.4 205.25M272.923 103.765L272.917 151.12C272.917 170.069 272.917 179.539 276.604 186.777C279.848 193.143 285.02 198.322 291.386 201.566C298.617 205.25 308.087 205.25 326.998 205.25H374.4" stroke="black" stroke-width="20" stroke-linecap="round" stroke-linejoin="round"></path>
</svg><style>@media (prefers-color-scheme: light) { :root { filter: none; } }
</style></svg>